<svg width="84" height="25" viewBox="0 0 84 25" fill="none" xmlns="http://www.w3.org/2000/svg">
<rect y="2.38094" width="20.2381" height="20.2381" rx="5.95238" fill="#0ACF83"/>
<mask id="mask0_648_529" style="mask-type:alpha" maskUnits="userSpaceOnUse" x="0" y="2" width="21" height="21">
<rect y="2.38095" width="20.2381" height="20.2381" rx="5.95238" fill="#0ACF83"/>
</mask>
<g mask="url(#mask0_648_529)">
<path d="M13.0689 12.0181C13.4641 13.4929 12.5873 15.0091 11.1105 15.4048C9.63368 15.8005 8.11618 14.9258 7.72103 13.4511C7.32588 11.9764 8.20272 10.4601 9.6795 10.0644C11.1563 9.66869 12.6738 10.5434 13.0689 12.0181Z" fill="white"/>
<path fill-rule="evenodd" clip-rule="evenodd" d="M-0.230604 3.89787C-0.605726 4.27254 -0.605938 4.87978 -0.231077 5.25419L4.47558 9.95516C3.83921 11.3039 3.65884 12.8757 4.0748 14.4281C5.0088 17.9138 8.59562 19.9814 12.0862 19.0461C15.5768 18.1108 17.6493 14.5268 16.7153 11.0411C15.7813 7.55541 12.1945 5.4879 8.70391 6.42319C8.17838 6.56401 7.68499 6.76487 7.22916 7.01638L2.61688 2.40968C2.24202 2.03527 1.63403 2.03548 1.25891 2.41015L-0.230604 3.89787ZM11.3707 16.3759C13.3845 15.8363 14.5802 13.7686 14.0414 11.7577C13.5025 9.74668 11.4332 8.55388 9.41941 9.09347C7.40561 9.63307 6.20993 11.7007 6.74877 13.7117C7.28761 15.7227 9.35693 16.9155 11.3707 16.3759Z" fill="white"/>
</g>
<path d="M27.8 19L32.6762 5.66667H35.5904L40.4476 19H37.7238L34.1047 8.6L30.4857 19H27.8ZM29.9523 15.9714L30.6381 13.9714H37.419L38.0857 15.9714H29.9523ZM45.7375 19.2286C44.9629 19.2286 44.2962 19.0698 43.7375 18.7524C43.1914 18.4222 42.7724 17.9333 42.4803 17.2857C42.201 16.6381 42.0613 15.8508 42.0613 14.9238V9.47619H44.6137V14.6571C44.6137 15.4444 44.7724 16.0413 45.0898 16.4476C45.4073 16.854 45.9089 17.0571 46.5946 17.0571C47.0264 17.0571 47.4073 16.9556 47.7375 16.7524C48.0803 16.5492 48.347 16.2571 48.5375 15.8762C48.7406 15.4952 48.8422 15.0317 48.8422 14.4857V9.47619H51.4137V19H49.147L48.9565 17.419C48.6518 17.9651 48.2264 18.4032 47.6803 18.7333C47.147 19.0635 46.4994 19.2286 45.7375 19.2286ZM58.4372 19.2286C57.561 19.2286 56.7737 19.0127 56.0753 18.581C55.3896 18.1492 54.8435 17.5587 54.4372 16.8095C54.0435 16.0476 53.8467 15.1905 53.8467 14.2381C53.8467 13.273 54.0435 12.4159 54.4372 11.6667C54.8435 10.9175 55.3959 10.327 56.0943 9.89524C56.8054 9.46349 57.5991 9.24762 58.4753 9.24762C59.1737 9.24762 59.7832 9.38095 60.3038 9.64762C60.8245 9.90159 61.2435 10.2571 61.561 10.7143V5.28571H64.1324V19H61.8467L61.561 17.6857C61.3705 17.9651 61.1292 18.2254 60.8372 18.4667C60.5578 18.6952 60.2213 18.8794 59.8276 19.019C59.434 19.1587 58.9705 19.2286 58.4372 19.2286ZM59.0467 16.981C59.5546 16.981 59.9991 16.8667 60.38 16.6381C60.7737 16.3968 61.0784 16.073 61.2943 15.6667C61.5102 15.2476 61.6181 14.7714 61.6181 14.2381C61.6181 13.6921 61.5102 13.2159 61.2943 12.8095C61.0784 12.3905 60.7737 12.0667 60.38 11.8381C59.9991 11.6095 59.5483 11.4952 59.0276 11.4952C58.5451 11.4952 58.107 11.6159 57.7134 11.8571C57.3197 12.0857 57.0086 12.4095 56.78 12.8286C56.5642 13.2349 56.4562 13.6984 56.4562 14.219C56.4562 14.7651 56.5642 15.2476 56.78 15.6667C57.0086 16.073 57.3197 16.3968 57.7134 16.6381C58.107 16.8667 58.5515 16.981 59.0467 16.981ZM66.9281 19V9.47619H69.4995V19H66.9281ZM68.2233 8.14286C67.7535 8.14286 67.3725 8.00317 67.0805 7.72381C66.7884 7.44444 66.6424 7.09524 66.6424 6.67619C66.6424 6.25714 66.7884 5.91429 67.0805 5.64762C67.3725 5.38095 67.7535 5.24762 68.2233 5.24762C68.6932 5.24762 69.0741 5.38095 69.3662 5.64762C69.671 5.91429 69.8233 6.25714 69.8233 6.67619C69.8233 7.09524 69.671 7.44444 69.3662 7.72381C69.0741 8.00317 68.6932 8.14286 68.2233 8.14286ZM76.8507 19.2286C75.9364 19.2286 75.111 19.019 74.3745 18.6C73.6507 18.1683 73.0729 17.5778 72.6412 16.8286C72.2221 16.0794 72.0126 15.2159 72.0126 14.2381C72.0126 13.2603 72.2221 12.3968 72.6412 11.6476C73.0729 10.8984 73.6571 10.3143 74.3936 9.89524C75.1301 9.46349 75.9555 9.24762 76.8698 9.24762C77.784 9.24762 78.6094 9.46349 79.3459 9.89524C80.0825 10.3143 80.6602 10.8984 81.0793 11.6476C81.511 12.3968 81.7269 13.2603 81.7269 14.2381C81.7269 15.2159 81.511 16.0794 81.0793 16.8286C80.6475 17.5778 80.0634 18.1683 79.3269 18.6C78.6031 19.019 77.7777 19.2286 76.8507 19.2286ZM76.8507 17C77.2698 17 77.6444 16.8984 77.9745 16.6952C78.3174 16.4921 78.5904 16.1873 78.7936 15.781C78.9967 15.3619 79.0983 14.8476 79.0983 14.2381C79.0983 13.6286 78.9967 13.1206 78.7936 12.7143C78.5904 12.2952 78.3174 11.9841 77.9745 11.781C77.6444 11.5778 77.2761 11.4762 76.8698 11.4762C76.4634 11.4762 76.0888 11.5778 75.7459 11.781C75.4031 11.9841 75.1301 12.2952 74.9269 12.7143C74.7237 13.1206 74.6221 13.6286 74.6221 14.2381C74.6221 14.8476 74.7237 15.3619 74.9269 15.781C75.1301 16.1873 75.3967 16.4921 75.7269 16.6952C76.0698 16.8984 76.4444 17 76.8507 17Z" fill="black"/>
</svg>
